<mxfile host="app.diagrams.net" modified="2020-11-17T03:18:25.121Z" agent="5.0 (Windows NT 10.0; Win64; x64) AppleWebKit/537.36 (KHTML, like Gecko) Chrome/86.0.4240.198 Safari/537.36" etag="5wl1dHAbxaA0hzSBUwh3" version="13.9.2" type="github">
  <diagram id="O2L6ZDKTy80kTJVc9CIp" name="Page-1">
    <mxGraphModel dx="1108" dy="482" grid="1" gridSize="10" guides="1" tooltips="1" connect="1" arrows="1" fold="1" page="1" pageScale="1" pageWidth="827" pageHeight="1169" math="0" shadow="0">
      <root>
        <mxCell id="0" />
        <mxCell id="1" parent="0" />
        <mxCell id="Ua8xMUkntEhrLMiah1p--66" value="" style="shape=table;html=1;whiteSpace=wrap;startSize=0;container=1;collapsible=0;childLayout=tableLayout;" vertex="1" parent="1">
          <mxGeometry x="230" y="120" width="520" height="360" as="geometry" />
        </mxCell>
        <mxCell id="Ua8xMUkntEhrLMiah1p--67" value="" style="shape=partialRectangle;html=1;whiteSpace=wrap;collapsible=0;dropTarget=0;pointerEvents=0;fillColor=#BDC1FF;top=0;left=0;bottom=0;right=0;points=[[0,0.5],[1,0.5]];portConstraint=eastwest;" vertex="1" parent="Ua8xMUkntEhrLMiah1p--66">
          <mxGeometry width="520" height="20" as="geometry" />
        </mxCell>
        <mxCell id="Ua8xMUkntEhrLMiah1p--68" value="" style="shape=partialRectangle;html=1;whiteSpace=wrap;connectable=0;overflow=hidden;fillColor=#FFFFFF;top=0;left=0;bottom=0;right=0;" vertex="1" parent="Ua8xMUkntEhrLMiah1p--67">
          <mxGeometry width="81" height="20" as="geometry" />
        </mxCell>
        <mxCell id="Ua8xMUkntEhrLMiah1p--69" value="&lt;b&gt;Raro&lt;/b&gt;" style="shape=partialRectangle;html=1;whiteSpace=wrap;connectable=0;overflow=hidden;fillColor=none;top=0;left=0;bottom=0;right=0;" vertex="1" parent="Ua8xMUkntEhrLMiah1p--67">
          <mxGeometry x="81" width="83" height="20" as="geometry" />
        </mxCell>
        <mxCell id="Ua8xMUkntEhrLMiah1p--70" value="&lt;b&gt;Poco probable&lt;/b&gt;" style="shape=partialRectangle;html=1;whiteSpace=wrap;connectable=0;overflow=hidden;fillColor=none;top=0;left=0;bottom=0;right=0;" vertex="1" parent="Ua8xMUkntEhrLMiah1p--67">
          <mxGeometry x="164" width="86" height="20" as="geometry" />
        </mxCell>
        <mxCell id="Ua8xMUkntEhrLMiah1p--71" value="&lt;b&gt;Posible&lt;/b&gt;" style="shape=partialRectangle;html=1;whiteSpace=wrap;connectable=0;overflow=hidden;fillColor=none;top=0;left=0;bottom=0;right=0;" vertex="1" parent="Ua8xMUkntEhrLMiah1p--67">
          <mxGeometry x="250" width="80" height="20" as="geometry" />
        </mxCell>
        <mxCell id="Ua8xMUkntEhrLMiah1p--72" value="&lt;b&gt;Muy probable&lt;/b&gt;" style="shape=partialRectangle;html=1;whiteSpace=wrap;connectable=0;overflow=hidden;fillColor=none;top=0;left=0;bottom=0;right=0;" vertex="1" parent="Ua8xMUkntEhrLMiah1p--67">
          <mxGeometry x="330" width="90" height="20" as="geometry" />
        </mxCell>
        <mxCell id="Ua8xMUkntEhrLMiah1p--73" value="&lt;b&gt;Casi seguro&lt;/b&gt;" style="shape=partialRectangle;html=1;whiteSpace=wrap;connectable=0;overflow=hidden;fillColor=none;top=0;left=0;bottom=0;right=0;" vertex="1" parent="Ua8xMUkntEhrLMiah1p--67">
          <mxGeometry x="420" width="100" height="20" as="geometry" />
        </mxCell>
        <mxCell id="Ua8xMUkntEhrLMiah1p--74" value="" style="shape=partialRectangle;html=1;whiteSpace=wrap;collapsible=0;dropTarget=0;pointerEvents=0;fillColor=none;top=0;left=0;bottom=0;right=0;points=[[0,0.5],[1,0.5]];portConstraint=eastwest;" vertex="1" parent="Ua8xMUkntEhrLMiah1p--66">
          <mxGeometry y="20" width="520" height="80" as="geometry" />
        </mxCell>
        <mxCell id="Ua8xMUkntEhrLMiah1p--75" value="&lt;b&gt;Despreciable&lt;/b&gt;" style="shape=partialRectangle;html=1;whiteSpace=wrap;connectable=0;overflow=hidden;fillColor=#BDC1FF;top=0;left=0;bottom=0;right=0;" vertex="1" parent="Ua8xMUkntEhrLMiah1p--74">
          <mxGeometry width="81" height="80" as="geometry" />
        </mxCell>
        <mxCell id="Ua8xMUkntEhrLMiah1p--76" value="" style="shape=partialRectangle;html=1;whiteSpace=wrap;connectable=0;overflow=hidden;fillColor=#99FF33;top=0;left=0;bottom=0;right=0;" vertex="1" parent="Ua8xMUkntEhrLMiah1p--74">
          <mxGeometry x="81" width="83" height="80" as="geometry" />
        </mxCell>
        <mxCell id="Ua8xMUkntEhrLMiah1p--77" value="&lt;b&gt;Hacer la reservación en un hotel para la luna de miel&lt;/b&gt;" style="shape=partialRectangle;html=1;whiteSpace=wrap;connectable=0;overflow=hidden;fillColor=#99FF33;top=0;left=0;bottom=0;right=0;" vertex="1" parent="Ua8xMUkntEhrLMiah1p--74">
          <mxGeometry x="164" width="86" height="80" as="geometry" />
        </mxCell>
        <mxCell id="Ua8xMUkntEhrLMiah1p--78" value="" style="shape=partialRectangle;html=1;whiteSpace=wrap;connectable=0;overflow=hidden;fillColor=#99FF33;top=0;left=0;bottom=0;right=0;" vertex="1" parent="Ua8xMUkntEhrLMiah1p--74">
          <mxGeometry x="250" width="80" height="80" as="geometry" />
        </mxCell>
        <mxCell id="Ua8xMUkntEhrLMiah1p--79" value="" style="shape=partialRectangle;html=1;whiteSpace=wrap;connectable=0;overflow=hidden;fillColor=#FFFF33;top=0;left=0;bottom=0;right=0;" vertex="1" parent="Ua8xMUkntEhrLMiah1p--74">
          <mxGeometry x="330" width="90" height="80" as="geometry" />
        </mxCell>
        <mxCell id="Ua8xMUkntEhrLMiah1p--80" value="" style="shape=partialRectangle;html=1;whiteSpace=wrap;connectable=0;overflow=hidden;fillColor=#FFFF33;top=0;left=0;bottom=0;right=0;" vertex="1" parent="Ua8xMUkntEhrLMiah1p--74">
          <mxGeometry x="420" width="100" height="80" as="geometry" />
        </mxCell>
        <mxCell id="Ua8xMUkntEhrLMiah1p--81" value="" style="shape=partialRectangle;html=1;whiteSpace=wrap;collapsible=0;dropTarget=0;pointerEvents=0;fillColor=none;top=0;left=0;bottom=0;right=0;points=[[0,0.5],[1,0.5]];portConstraint=eastwest;" vertex="1" parent="Ua8xMUkntEhrLMiah1p--66">
          <mxGeometry y="100" width="520" height="50" as="geometry" />
        </mxCell>
        <mxCell id="Ua8xMUkntEhrLMiah1p--82" value="&lt;b&gt;Menores&lt;/b&gt;" style="shape=partialRectangle;html=1;whiteSpace=wrap;connectable=0;overflow=hidden;fillColor=#BDC1FF;top=0;left=0;bottom=0;right=0;" vertex="1" parent="Ua8xMUkntEhrLMiah1p--81">
          <mxGeometry width="81" height="50" as="geometry" />
        </mxCell>
        <mxCell id="Ua8xMUkntEhrLMiah1p--83" value="&lt;b&gt;Reservar ceremonia nupcial&lt;/b&gt;" style="shape=partialRectangle;html=1;whiteSpace=wrap;connectable=0;overflow=hidden;fillColor=#99FF33;top=0;left=0;bottom=0;right=0;" vertex="1" parent="Ua8xMUkntEhrLMiah1p--81">
          <mxGeometry x="81" width="83" height="50" as="geometry" />
        </mxCell>
        <mxCell id="Ua8xMUkntEhrLMiah1p--84" value="" style="shape=partialRectangle;html=1;whiteSpace=wrap;connectable=0;overflow=hidden;fillColor=#99FF33;top=0;left=0;bottom=0;right=0;" vertex="1" parent="Ua8xMUkntEhrLMiah1p--81">
          <mxGeometry x="164" width="86" height="50" as="geometry" />
        </mxCell>
        <mxCell id="Ua8xMUkntEhrLMiah1p--85" value="" style="shape=partialRectangle;html=1;whiteSpace=wrap;connectable=0;overflow=hidden;fillColor=#FFFF33;top=0;left=0;bottom=0;right=0;" vertex="1" parent="Ua8xMUkntEhrLMiah1p--81">
          <mxGeometry x="250" width="80" height="50" as="geometry" />
        </mxCell>
        <mxCell id="Ua8xMUkntEhrLMiah1p--86" value="" style="shape=partialRectangle;html=1;whiteSpace=wrap;connectable=0;overflow=hidden;fillColor=#FFFF33;top=0;left=0;bottom=0;right=0;" vertex="1" parent="Ua8xMUkntEhrLMiah1p--81">
          <mxGeometry x="330" width="90" height="50" as="geometry" />
        </mxCell>
        <mxCell id="Ua8xMUkntEhrLMiah1p--87" value="" style="shape=partialRectangle;html=1;whiteSpace=wrap;connectable=0;overflow=hidden;fillColor=#FFFF33;top=0;left=0;bottom=0;right=0;" vertex="1" parent="Ua8xMUkntEhrLMiah1p--81">
          <mxGeometry x="420" width="100" height="50" as="geometry" />
        </mxCell>
        <mxCell id="Ua8xMUkntEhrLMiah1p--88" value="" style="shape=partialRectangle;html=1;whiteSpace=wrap;collapsible=0;dropTarget=0;pointerEvents=0;fillColor=none;top=0;left=0;bottom=0;right=0;points=[[0,0.5],[1,0.5]];portConstraint=eastwest;" vertex="1" parent="Ua8xMUkntEhrLMiah1p--66">
          <mxGeometry y="150" width="520" height="50" as="geometry" />
        </mxCell>
        <mxCell id="Ua8xMUkntEhrLMiah1p--89" value="&lt;b&gt;Moderada&lt;/b&gt;" style="shape=partialRectangle;html=1;whiteSpace=wrap;connectable=0;overflow=hidden;fillColor=#BDC1FF;top=0;left=0;bottom=0;right=0;" vertex="1" parent="Ua8xMUkntEhrLMiah1p--88">
          <mxGeometry width="81" height="50" as="geometry" />
        </mxCell>
        <mxCell id="Ua8xMUkntEhrLMiah1p--90" value="" style="shape=partialRectangle;html=1;whiteSpace=wrap;connectable=0;overflow=hidden;fillColor=#FFFF33;top=0;left=0;bottom=0;right=0;" vertex="1" parent="Ua8xMUkntEhrLMiah1p--88">
          <mxGeometry x="81" width="83" height="50" as="geometry" />
        </mxCell>
        <mxCell id="Ua8xMUkntEhrLMiah1p--91" value="" style="shape=partialRectangle;html=1;whiteSpace=wrap;connectable=0;overflow=hidden;fillColor=#FFFF33;top=0;left=0;bottom=0;right=0;" vertex="1" parent="Ua8xMUkntEhrLMiah1p--88">
          <mxGeometry x="164" width="86" height="50" as="geometry" />
        </mxCell>
        <mxCell id="Ua8xMUkntEhrLMiah1p--92" value="" style="shape=partialRectangle;html=1;whiteSpace=wrap;connectable=0;overflow=hidden;fillColor=#FFFF33;top=0;left=0;bottom=0;right=0;" vertex="1" parent="Ua8xMUkntEhrLMiah1p--88">
          <mxGeometry x="250" width="80" height="50" as="geometry" />
        </mxCell>
        <mxCell id="Ua8xMUkntEhrLMiah1p--93" value="&lt;b&gt;Elegir el grupo de música para el lugar&lt;/b&gt;" style="shape=partialRectangle;html=1;whiteSpace=wrap;connectable=0;overflow=hidden;fillColor=#FF9933;top=0;left=0;bottom=0;right=0;" vertex="1" parent="Ua8xMUkntEhrLMiah1p--88">
          <mxGeometry x="330" width="90" height="50" as="geometry" />
        </mxCell>
        <mxCell id="Ua8xMUkntEhrLMiah1p--94" value="" style="shape=partialRectangle;html=1;whiteSpace=wrap;connectable=0;overflow=hidden;fillColor=#FF9933;top=0;left=0;bottom=0;right=0;" vertex="1" parent="Ua8xMUkntEhrLMiah1p--88">
          <mxGeometry x="420" width="100" height="50" as="geometry" />
        </mxCell>
        <mxCell id="Ua8xMUkntEhrLMiah1p--95" value="" style="shape=partialRectangle;html=1;whiteSpace=wrap;collapsible=0;dropTarget=0;pointerEvents=0;fillColor=none;top=0;left=0;bottom=0;right=0;points=[[0,0.5],[1,0.5]];portConstraint=eastwest;" vertex="1" parent="Ua8xMUkntEhrLMiah1p--66">
          <mxGeometry y="200" width="520" height="80" as="geometry" />
        </mxCell>
        <mxCell id="Ua8xMUkntEhrLMiah1p--96" value="&lt;b&gt;Mayores&lt;/b&gt;" style="shape=partialRectangle;html=1;whiteSpace=wrap;connectable=0;overflow=hidden;fillColor=#BDC1FF;top=0;left=0;bottom=0;right=0;" vertex="1" parent="Ua8xMUkntEhrLMiah1p--95">
          <mxGeometry width="81" height="80" as="geometry" />
        </mxCell>
        <mxCell id="Ua8xMUkntEhrLMiah1p--97" value="" style="shape=partialRectangle;html=1;whiteSpace=wrap;connectable=0;overflow=hidden;fillColor=#FFFF33;top=0;left=0;bottom=0;right=0;" vertex="1" parent="Ua8xMUkntEhrLMiah1p--95">
          <mxGeometry x="81" width="83" height="80" as="geometry" />
        </mxCell>
        <mxCell id="Ua8xMUkntEhrLMiah1p--98" value="&lt;b&gt;Reservar el salón de eventos&lt;/b&gt;" style="shape=partialRectangle;html=1;whiteSpace=wrap;connectable=0;overflow=hidden;fillColor=#FFFF33;top=0;left=0;bottom=0;right=0;" vertex="1" parent="Ua8xMUkntEhrLMiah1p--95">
          <mxGeometry x="164" width="86" height="80" as="geometry" />
        </mxCell>
        <mxCell id="Ua8xMUkntEhrLMiah1p--99" value="&lt;b&gt;&amp;nbsp;Mandar a hacer el vestido y traje de los novios&lt;/b&gt;" style="shape=partialRectangle;html=1;whiteSpace=wrap;connectable=0;overflow=hidden;fillColor=#FF9933;top=0;left=0;bottom=0;right=0;" vertex="1" parent="Ua8xMUkntEhrLMiah1p--95">
          <mxGeometry x="250" width="80" height="80" as="geometry" />
        </mxCell>
        <mxCell id="Ua8xMUkntEhrLMiah1p--100" value="" style="shape=partialRectangle;html=1;whiteSpace=wrap;connectable=0;overflow=hidden;fillColor=#FF9933;top=0;left=0;bottom=0;right=0;" vertex="1" parent="Ua8xMUkntEhrLMiah1p--95">
          <mxGeometry x="330" width="90" height="80" as="geometry" />
        </mxCell>
        <mxCell id="Ua8xMUkntEhrLMiah1p--101" value="&lt;b&gt;Retraso al realizar los trámites para casarse&lt;/b&gt;" style="shape=partialRectangle;html=1;whiteSpace=wrap;connectable=0;overflow=hidden;fillColor=#FF0000;top=0;left=0;bottom=0;right=0;" vertex="1" parent="Ua8xMUkntEhrLMiah1p--95">
          <mxGeometry x="420" width="100" height="80" as="geometry" />
        </mxCell>
        <mxCell id="Ua8xMUkntEhrLMiah1p--102" value="" style="shape=partialRectangle;html=1;whiteSpace=wrap;collapsible=0;dropTarget=0;pointerEvents=0;fillColor=none;top=0;left=0;bottom=0;right=0;points=[[0,0.5],[1,0.5]];portConstraint=eastwest;" vertex="1" parent="Ua8xMUkntEhrLMiah1p--66">
          <mxGeometry y="280" width="520" height="80" as="geometry" />
        </mxCell>
        <mxCell id="Ua8xMUkntEhrLMiah1p--103" value="&lt;b&gt;Catastróficas&lt;/b&gt;" style="shape=partialRectangle;html=1;whiteSpace=wrap;connectable=0;overflow=hidden;fillColor=#BDC1FF;top=0;left=0;bottom=0;right=0;strokeColor=#BDC1FF;" vertex="1" parent="Ua8xMUkntEhrLMiah1p--102">
          <mxGeometry width="81" height="80" as="geometry" />
        </mxCell>
        <mxCell id="Ua8xMUkntEhrLMiah1p--104" value="&lt;b&gt;&amp;nbsp;Asignar padrinos de boda de Tony y peggy&lt;/b&gt;" style="shape=partialRectangle;html=1;whiteSpace=wrap;connectable=0;overflow=hidden;fillColor=#FFFF33;top=0;left=0;bottom=0;right=0;" vertex="1" parent="Ua8xMUkntEhrLMiah1p--102">
          <mxGeometry x="81" width="83" height="80" as="geometry" />
        </mxCell>
        <mxCell id="Ua8xMUkntEhrLMiah1p--105" value="" style="shape=partialRectangle;html=1;whiteSpace=wrap;connectable=0;overflow=hidden;fillColor=#FF9933;top=0;left=0;bottom=0;right=0;" vertex="1" parent="Ua8xMUkntEhrLMiah1p--102">
          <mxGeometry x="164" width="86" height="80" as="geometry" />
        </mxCell>
        <mxCell id="Ua8xMUkntEhrLMiah1p--106" value="" style="shape=partialRectangle;html=1;whiteSpace=wrap;connectable=0;overflow=hidden;fillColor=#FF9933;top=0;left=0;bottom=0;right=0;" vertex="1" parent="Ua8xMUkntEhrLMiah1p--102">
          <mxGeometry x="250" width="80" height="80" as="geometry" />
        </mxCell>
        <mxCell id="Ua8xMUkntEhrLMiah1p--107" value="" style="shape=partialRectangle;html=1;whiteSpace=wrap;connectable=0;overflow=hidden;fillColor=#FF0000;top=0;left=0;bottom=0;right=0;" vertex="1" parent="Ua8xMUkntEhrLMiah1p--102">
          <mxGeometry x="330" width="90" height="80" as="geometry" />
        </mxCell>
        <mxCell id="Ua8xMUkntEhrLMiah1p--108" value="" style="shape=partialRectangle;html=1;whiteSpace=wrap;connectable=0;overflow=hidden;fillColor=#FF0000;top=0;left=0;bottom=0;right=0;" vertex="1" parent="Ua8xMUkntEhrLMiah1p--102">
          <mxGeometry x="420" width="100" height="80" as="geometry" />
        </mxCell>
        <mxCell id="Ua8xMUkntEhrLMiah1p--109" value="" style="whiteSpace=wrap;html=1;fillColor=#5460FF;strokeColor=#004C99;" vertex="1" parent="1">
          <mxGeometry x="200" y="140" width="30" height="340" as="geometry" />
        </mxCell>
        <mxCell id="Ua8xMUkntEhrLMiah1p--111" value="&lt;font face=&quot;Times New Roman&quot; style=&quot;font-size: 24px&quot; color=&quot;#ffffff&quot;&gt;Probabilidad&lt;/font&gt;" style="whiteSpace=wrap;html=1;direction=north;fillColor=#5460FF;" vertex="1" parent="1">
          <mxGeometry x="310" y="90" width="440" height="30" as="geometry" />
        </mxCell>
        <mxCell id="Ua8xMUkntEhrLMiah1p--112" value="&lt;font face=&quot;Times New Roman&quot; style=&quot;font-size: 24px&quot; color=&quot;#ffffff&quot;&gt;Consecuencias&lt;/font&gt;" style="text;html=1;strokeColor=none;fillColor=none;align=center;verticalAlign=middle;whiteSpace=wrap;rounded=0;rotation=270;" vertex="1" parent="1">
          <mxGeometry x="195" y="290" width="40" height="20" as="geometry" />
        </mxCell>
        <mxCell id="Ua8xMUkntEhrLMiah1p--113" value="" style="shape=table;html=1;whiteSpace=wrap;startSize=0;container=1;collapsible=0;childLayout=tableLayout;fillColor=#99FF33;" vertex="1" parent="1">
          <mxGeometry x="827" y="160" width="60" height="270" as="geometry" />
        </mxCell>
        <mxCell id="Ua8xMUkntEhrLMiah1p--114" value="" style="shape=partialRectangle;html=1;whiteSpace=wrap;collapsible=0;dropTarget=0;pointerEvents=0;fillColor=none;top=0;left=0;bottom=0;right=0;points=[[0,0.5],[1,0.5]];portConstraint=eastwest;" vertex="1" parent="Ua8xMUkntEhrLMiah1p--113">
          <mxGeometry width="60" height="68" as="geometry" />
        </mxCell>
        <mxCell id="Ua8xMUkntEhrLMiah1p--115" value="&lt;b&gt;Bajo&lt;/b&gt;" style="shape=partialRectangle;html=1;whiteSpace=wrap;connectable=0;overflow=hidden;fillColor=none;top=0;left=0;bottom=0;right=0;" vertex="1" parent="Ua8xMUkntEhrLMiah1p--114">
          <mxGeometry width="60" height="68" as="geometry" />
        </mxCell>
        <mxCell id="Ua8xMUkntEhrLMiah1p--116" value="" style="shape=partialRectangle;html=1;whiteSpace=wrap;collapsible=0;dropTarget=0;pointerEvents=0;fillColor=none;top=0;left=0;bottom=0;right=0;points=[[0,0.5],[1,0.5]];portConstraint=eastwest;" vertex="1" parent="Ua8xMUkntEhrLMiah1p--113">
          <mxGeometry y="68" width="60" height="67" as="geometry" />
        </mxCell>
        <mxCell id="Ua8xMUkntEhrLMiah1p--117" value="&lt;b&gt;Medio&lt;/b&gt;" style="shape=partialRectangle;html=1;whiteSpace=wrap;connectable=0;overflow=hidden;fillColor=#FFFF33;top=0;left=0;bottom=0;right=0;" vertex="1" parent="Ua8xMUkntEhrLMiah1p--116">
          <mxGeometry width="60" height="67" as="geometry" />
        </mxCell>
        <mxCell id="Ua8xMUkntEhrLMiah1p--118" value="" style="shape=partialRectangle;html=1;whiteSpace=wrap;collapsible=0;dropTarget=0;pointerEvents=0;fillColor=none;top=0;left=0;bottom=0;right=0;points=[[0,0.5],[1,0.5]];portConstraint=eastwest;" vertex="1" parent="Ua8xMUkntEhrLMiah1p--113">
          <mxGeometry y="135" width="60" height="68" as="geometry" />
        </mxCell>
        <mxCell id="Ua8xMUkntEhrLMiah1p--119" value="&lt;b&gt;Alto&lt;/b&gt;" style="shape=partialRectangle;html=1;whiteSpace=wrap;connectable=0;overflow=hidden;fillColor=#FF9933;top=0;left=0;bottom=0;right=0;" vertex="1" parent="Ua8xMUkntEhrLMiah1p--118">
          <mxGeometry width="60" height="68" as="geometry" />
        </mxCell>
        <mxCell id="Ua8xMUkntEhrLMiah1p--120" value="" style="shape=partialRectangle;html=1;whiteSpace=wrap;collapsible=0;dropTarget=0;pointerEvents=0;fillColor=none;top=0;left=0;bottom=0;right=0;points=[[0,0.5],[1,0.5]];portConstraint=eastwest;" vertex="1" parent="Ua8xMUkntEhrLMiah1p--113">
          <mxGeometry y="203" width="60" height="67" as="geometry" />
        </mxCell>
        <mxCell id="Ua8xMUkntEhrLMiah1p--121" value="&lt;b&gt;Muy alto&lt;/b&gt;" style="shape=partialRectangle;html=1;whiteSpace=wrap;connectable=0;overflow=hidden;fillColor=#FF0000;top=0;left=0;bottom=0;right=0;" vertex="1" parent="Ua8xMUkntEhrLMiah1p--120">
          <mxGeometry width="60" height="67" as="geometry" />
        </mxCell>
      </root>
    </mxGraphModel>
  </diagram>
</mxfile>
